<?xml version="1.0" encoding="UTF-8"?>
<svg version="1.1" xmlns="http://www.w3.org/2000/svg" width="512" height="512">
<path d="M0 0 C2.621543 0.01608159 5.24154029 0.00004738 7.86303711 -0.01904297 C22.20284905 -0.03767864 36.63029434 1.20593898 50.25170898 6.01611328 C50.98156006 6.26844727 51.71141113 6.52078125 52.46337891 6.78076172 C66.1849179 11.7393241 78.03668574 19.07914632 89.18920898 28.39111328 C89.93557617 28.98537109 90.68194336 29.57962891 91.45092773 30.19189453 C97.17786379 34.90620928 101.68169262 40.5280757 106.18920898 46.39111328 C106.79764648 47.17228516 107.40608398 47.95345703 108.03295898 48.75830078 C115.34752539 58.63296543 120.53911514 69.80017891 124.50170898 81.39111328 C124.84697632 82.38401367 124.84697632 82.38401367 125.19921875 83.39697266 C130.22255183 98.91459563 130.62870707 114.08505871 130.59326172 130.23535156 C130.59897461 132.60233378 130.6059424 134.96931325 130.61405945 137.33628845 C130.63189245 143.71781197 130.63084257 150.09919728 130.62511706 156.48073816 C130.62279719 160.47096072 130.62502795 164.46116256 130.6295948 168.45138168 C130.63034322 169.11634357 130.63109165 169.78130545 130.63186275 170.46641769 C130.63339437 171.81767577 130.63493272 173.16893383 130.63647772 174.52019189 C130.65015253 187.14239277 130.64479749 199.76453137 130.6332925 212.38673078 C130.62333531 223.92770463 130.63635243 235.46851874 130.6602267 247.00946797 C130.68460987 258.88645045 130.69422936 270.76335848 130.68757397 282.64036548 C130.68408387 289.29813805 130.68663789 295.95580315 130.703825 302.61355972 C130.71925845 308.86328406 130.71537844 315.11270136 130.69651985 321.36241341 C130.69282579 323.65618772 130.6959661 325.94998464 130.70640564 328.24373817 C130.71955902 331.3721688 130.70811811 334.49957407 130.69041443 337.62796021 C130.70001944 338.53728778 130.70962444 339.44661536 130.71952051 340.38349831 C130.64317668 346.92999756 129.22914658 350.32935795 124.55639648 355.03564453 C119.20506083 359.22425542 116.02784854 359.54748703 109.35253906 359.56811523 C108.43690186 359.57468643 107.52126465 359.58125763 106.57788086 359.58802795 C103.53816653 359.60778833 100.49850172 359.61943082 97.45874023 359.62939453 C96.42121801 359.63347006 95.38369579 359.63754559 94.31473351 359.64174461 C88.82131524 359.66261893 83.32792203 359.67691368 77.83447266 359.6862793 C72.16276773 359.69733505 66.49145607 359.73172166 60.81989002 359.771451 C56.45750709 359.79761418 52.09521778 359.80597098 47.73276329 359.80956078 C45.64241574 359.81442898 43.55207244 359.8260496 41.46180153 359.84459877 C38.53183636 359.86897912 35.60288739 359.86802682 32.67285156 359.86108398 C31.38283485 359.88029907 31.38283485 359.88029907 30.0667572 359.89990234 C24.28379061 359.85008593 20.95210324 358.7104912 16.18920898 355.39111328 C11.1654734 349.96004779 9.89145644 345.91297327 9.93092346 338.60134888 C9.92724776 337.81151639 9.92357205 337.0216839 9.91978496 336.20791709 C9.9097958 333.55814227 9.91395772 330.90857693 9.91796875 328.25878906 C9.91358194 326.3597542 9.90827995 324.46072126 9.90213013 322.56169128 C9.89062077 318.46874947 9.88516998 314.3758595 9.88424873 310.28290176 C9.88230775 303.80133614 9.86425017 297.31987741 9.8434906 290.83834839 C9.79429382 274.73021378 9.76347758 258.62204993 9.7421875 242.51385498 C9.72563307 230.01155165 9.70271069 217.50933952 9.65916675 205.00709713 C9.63747431 198.57486173 9.62932488 192.14279994 9.63155949 185.71053052 C9.62988249 181.69021269 9.61577025 177.67000627 9.59834671 173.64972878 C9.5927875 171.79794825 9.59222438 169.94614422 9.59728432 168.09436226 C9.63441606 152.90106829 9.2839621 137.79852906 -1.12329102 125.70361328 C-12.97973359 115.50155805 -23.41274915 110.80581331 -39.25219727 111.07861328 C-52.36809631 112.23039366 -63.4208673 118.85381334 -71.83422852 128.73876953 C-79.84290787 139.48559419 -81.97404738 151.46372972 -81.9420929 164.60183716 C-81.94420861 165.38848122 -81.94632432 166.17512527 -81.94850415 166.98560703 C-81.95445684 169.60011954 -81.95350742 172.21458314 -81.95263672 174.82910156 C-81.95567122 176.71214886 -81.95919348 178.59519542 -81.96316528 180.47824097 C-81.97102994 184.52255458 -81.97618988 188.56685947 -81.97945595 192.61117935 C-81.98538253 199.00683522 -82.00193656 205.40243595 -82.02079773 211.79806519 C-82.02713423 213.99009129 -82.03345986 216.18211743 -82.03977489 218.3741436 C-82.04294071 219.47151714 -82.04610652 220.56889068 -82.04936826 221.69951797 C-82.09141511 236.58189567 -82.12444347 251.46424647 -82.13671875 266.34667969 C-82.14509344 276.39706127 -82.16755649 286.44730499 -82.20607442 296.4976176 C-82.22584383 301.81301335 -82.2382364 307.12820298 -82.23324013 312.44363785 C-82.22860103 317.4391611 -82.24235866 322.43429279 -82.27025223 327.42973709 C-82.27717462 329.26230077 -82.27727933 331.09490485 -82.27005196 332.92746735 C-82.26117816 335.4302307 -82.27683207 337.93169855 -82.29853821 340.43435669 C-82.2858744 341.52054879 -82.2858744 341.52054879 -82.27295476 342.62868416 C-82.35378656 347.67241751 -83.63684238 350.51290234 -86.81079102 354.39111328 C-92.29956398 359.50925967 -97.90206732 360.11308832 -105.13891602 360.0222168 C-106.14160522 360.0293721 -107.14429443 360.0365274 -108.17736816 360.04389954 C-111.4723143 360.06072656 -114.76588834 360.04141801 -118.06079102 360.02001953 C-120.36189893 360.02084877 -122.66300678 360.02331025 -124.96411133 360.02732849 C-129.77907206 360.03018241 -134.59356658 360.01552421 -139.40844727 359.98803711 C-145.56872559 359.95395577 -151.72817056 359.95997682 -157.88848877 359.97869968 C-162.63784687 359.98928707 -167.38701233 359.98031591 -172.13635254 359.96531487 C-174.40726143 359.96014541 -176.67819054 359.96059978 -178.94909668 359.96685982 C-182.12739055 359.97233284 -185.3045065 359.95186877 -188.48266602 359.92456055 C-189.87938538 359.93434937 -189.87938538 359.93434937 -191.30432129 359.94433594 C-197.22003104 359.85825989 -201.91927102 358.86894383 -206.81079102 355.39111328 C-210.60942809 350.6184667 -211.93401111 347.00435743 -211.94501209 340.98428822 C-211.94946994 339.85462849 -211.95392778 338.72496877 -211.95852071 337.56107694 C-211.95833635 336.31460517 -211.95815199 335.06813341 -211.95796204 333.78388977 C-211.96163872 332.46390006 -211.96531541 331.14391034 -211.96910352 329.78392094 C-211.97912863 326.11203247 -211.98284113 322.44016034 -211.98549283 318.76826012 C-211.98939437 314.81106058 -211.99897281 310.85387401 -212.00770569 306.89668274 C-212.02747438 297.33607967 -212.03753683 287.77547553 -212.04643348 278.21485713 C-212.05081573 273.71357722 -212.0561827 269.21229849 -212.06142235 264.71101952 C-212.07843505 249.74940008 -212.09292949 234.78778138 -212.10017109 219.82615376 C-212.10208101 215.94294038 -212.10400134 212.05972702 -212.10595703 208.17651367 C-212.10644077 207.21134947 -212.10692451 206.24618528 -212.10742291 205.25177368 C-212.1157242 189.6148048 -212.14106258 173.97791241 -212.17353771 158.34097693 C-212.20660089 142.29014564 -212.22461918 126.23935323 -212.22781533 110.18848771 C-212.22998112 101.17518923 -212.23873979 92.16200227 -212.2642765 83.14873695 C-212.28597339 75.47297828 -212.29403892 67.79735821 -212.28430972 60.12157235 C-212.27976206 56.20561178 -212.28167809 52.28993724 -212.30107117 48.37401581 C-212.31868276 44.78681714 -212.31772186 41.2001136 -212.30217388 37.61290982 C-212.29867035 35.70520645 -212.31483917 33.79749802 -212.33177835 31.88986665 C-212.27940212 24.91504017 -211.58168787 20.31577609 -207.81079102 14.39111328 C-205.84594727 12.55126953 -205.84594727 12.55126953 -203.87329102 11.45361328 C-203.22489258 11.07333984 -202.57649414 10.69306641 -201.90844727 10.30126953 C-196.89513582 8.12603384 -191.74665007 8.24274261 -186.36791992 8.24584961 C-185.11084984 8.24081169 -185.11084984 8.24081169 -183.8283844 8.235672 C-181.06469226 8.22619209 -178.30106089 8.22422039 -175.53735352 8.22314453 C-173.61070735 8.21992997 -171.68406143 8.21656575 -169.75741577 8.21305847 C-165.72083978 8.20707467 -161.68428519 8.20521781 -157.64770508 8.20581055 C-152.48402137 8.20591214 -147.32047523 8.19225903 -142.15682411 8.17503834 C-138.17790094 8.16390154 -134.19901086 8.16189185 -130.2200737 8.16242027 C-128.31675111 8.16124273 -126.41342759 8.15683364 -124.51012039 8.14908791 C-121.84413353 8.13925383 -119.17844315 8.1421795 -116.51245117 8.14819336 C-115.73195908 8.14257385 -114.95146698 8.13695435 -114.14732361 8.13116455 C-106.25780735 8.17622339 -100.59704698 9.73636314 -94.81079102 15.39111328 C-91.84006899 19.44407879 -91.13366418 23.31058612 -90.62329102 28.20361328 C-90.54143555 28.89648438 -90.45958008 29.58935547 -90.37524414 30.30322266 C-90.17654809 31.99798312 -89.99219898 33.69441522 -89.81079102 35.39111328 C-88.94454102 34.18455078 -88.94454102 34.18455078 -88.06079102 32.95361328 C-67.41270147 8.3725543 -30.4944647 -0.22153006 0 0 Z " fill="#000000" transform="translate(381.810791015625,148.60888671875)"/>
<path d="M0 0 C0.6677092 -0.00335861 1.3354184 -0.00671722 2.02336121 -0.01017761 C4.20984812 -0.01960199 6.39625776 -0.02162644 8.58276367 -0.02270508 C10.11822032 -0.02592369 11.65367667 -0.02928821 13.18913269 -0.03279114 C16.40083527 -0.03876123 19.61251102 -0.04063324 22.82421875 -0.04003906 C26.91588552 -0.03993759 31.0073782 -0.05358392 35.09900379 -0.07081127 C38.26910677 -0.08199424 41.4391685 -0.08395634 44.60928917 -0.08342934 C46.11659024 -0.08460021 47.6238927 -0.0889711 49.13117409 -0.0967617 C71.98683519 -0.20383537 71.98683519 -0.20383537 80.93823242 8.14526367 C88.05847342 15.65038256 88.37485143 22.89566679 88.31918335 32.78466797 C88.32386332 34.05977832 88.32854329 35.33488867 88.33336508 36.64863873 C88.34586322 40.17668111 88.33971022 43.70447935 88.33040643 47.23252249 C88.32361137 51.04171986 88.33409942 54.85087562 88.34234619 58.6600647 C88.35568086 66.11781615 88.35280698 73.57547698 88.34410827 81.03323197 C88.33733108 87.09470249 88.33641515 93.15614763 88.33967972 99.21762085 C88.34013942 100.08056407 88.34059912 100.94350728 88.34107275 101.8326003 C88.34203193 103.58569345 88.34300457 105.33878659 88.34399052 107.09187973 C88.35254363 123.52778273 88.34271152 139.96363552 88.32658942 156.39953029 C88.31318631 170.50002125 88.31551442 184.60043811 88.3293457 198.70092773 C88.3454029 215.07831575 88.35171967 231.45565976 88.34250891 247.83305454 C88.34155327 249.57967185 88.34061016 251.32628917 88.33967972 253.07290649 C88.33921689 253.932259 88.33875406 254.7916115 88.33827721 255.67700499 C88.33568775 261.7306748 88.34005739 267.78431669 88.34711838 273.83798218 C88.35553513 281.21613078 88.35324957 288.59418363 88.33727615 295.97232127 C88.32939577 299.73623597 88.32629779 303.49999108 88.3362236 307.26390457 C88.34682224 311.34469492 88.33416081 315.42508284 88.31918335 319.50585938 C88.32587551 320.69467052 88.33256768 321.88348166 88.33946264 323.10831738 C88.27827609 331.68370944 86.91023523 338.02016882 80.82946777 344.39004517 C72.15287414 352.44262186 61.69158228 351.88390302 50.59448242 351.80932617 C48.81668772 351.81270116 47.03889528 351.81755944 45.2611084 351.82382202 C41.54925398 351.83116123 37.83800437 351.82058394 34.1262207 351.79711914 C29.39188738 351.76863277 24.65897168 351.78505273 19.92469025 351.81498146 C16.25780751 351.83313486 12.59125541 351.82725981 8.92436218 351.8143425 C7.17982308 351.81103064 5.43525298 351.81501652 3.69075012 351.82674026 C-6.84778276 351.88203788 -16.02709671 351.71060398 -24.18737793 344.18496704 C-31.86954518 336.33187506 -32.50284981 328.05450147 -32.44271851 317.55091858 C-32.44739848 316.29269915 -32.45207845 315.03447971 -32.45690024 313.73813242 C-32.46938086 310.26181552 -32.46325339 306.78574688 -32.45394158 303.30942929 C-32.44713924 299.55406298 -32.45763823 295.79873864 -32.46588135 292.04338074 C-32.47920864 284.69271194 -32.47634531 277.34213515 -32.46764342 269.99146277 C-32.46086282 264.01584562 -32.45995179 258.04025422 -32.46321487 252.06463432 C-32.46367457 251.21350549 -32.46413427 250.36237665 -32.4646079 249.48545603 C-32.4655671 247.75628388 -32.46653974 246.02711173 -32.46752568 244.29793959 C-32.47607676 228.08992614 -32.46625012 211.88196363 -32.45012458 195.67395853 C-32.43672407 181.77480101 -32.43904783 167.87571866 -32.45288086 153.9765625 C-32.46894581 137.82731163 -32.47525027 121.67810538 -32.46604407 105.52884763 C-32.46508845 103.80580136 -32.46414533 102.08275508 -32.46321487 100.35970879 C-32.46275205 99.51198913 -32.46228922 98.66426948 -32.46181237 97.79086136 C-32.45922505 91.82478209 -32.46358797 85.8587312 -32.47065353 79.89265633 C-32.479079 72.61852643 -32.47676652 65.34449361 -32.4608113 58.07037479 C-32.45294227 54.3608868 -32.44981349 50.65156051 -32.45975876 46.94207382 C-32.47038726 42.91677338 -32.4576721 38.89187906 -32.44271851 34.86659241 C-32.44941067 33.69985286 -32.45610284 32.53311332 -32.46299779 31.33101803 C-32.39272893 21.57764834 -30.83534881 14.07584321 -24.01879883 6.87182617 C-16.99725302 0.67716899 -9.11333264 0.02900078 0 0 Z " fill="#000000" transform="translate(40.061767578125,156.854736328125)"/>
<path d="M0 0 C14.91460095 11.3809878 25.13276785 26.51535753 28.3515625 45.1875 C29.68033701 65.70901293 27.20796928 85.17292407 13.3190918 101.22387695 C0.73175743 114.89606238 -15.12179379 124.58338724 -33.984375 125.5 C-54.05853891 126.10099296 -70.72086046 122.12613989 -86.0859375 108.6875 C-87.62373302 107.20489453 -89.14612734 105.70605135 -90.6484375 104.1875 C-91.27105469 103.59839844 -91.89367187 103.00929688 -92.53515625 102.40234375 C-105.37677693 89.27214733 -109.14316012 71.29598421 -108.99829102 53.61914062 C-108.54897337 35.08970466 -101.19223962 19.99489718 -88.3046875 6.78515625 C-64.41084687 -15.93667637 -27.14164892 -18.57481578 0 0 Z " fill="#000000" transform="translate(108.6484375,15.8125)"/>
</svg>
