<?xml version="1.0" encoding="UTF-8"?>
<svg version="1.1" xmlns="http://www.w3.org/2000/svg" width="512" height="512">
<path d="M0 0 C1.56143586 -0.00462113 3.12286735 -0.0109821 4.68428993 -0.01890898 C8.93135645 -0.03545932 13.17805902 -0.02742186 17.42512608 -0.0149641 C22.0223532 -0.00585674 26.61952082 -0.01991134 31.21673584 -0.03088379 C40.20545632 -0.04861328 49.19404274 -0.04485394 58.18276834 -0.03323323 C65.49207561 -0.02417717 72.80134547 -0.02298428 80.11065674 -0.02732849 C81.15338009 -0.02794142 82.19610345 -0.02855436 83.27042449 -0.02918586 C85.38910152 -0.03046484 87.50777854 -0.0317617 89.62645555 -0.03307623 C109.46480026 -0.04446571 129.30307088 -0.03139396 149.14140344 -0.00987476 C166.14101828 0.00799472 183.14052384 0.00489016 200.14013672 -0.0135498 C219.91045872 -0.03498538 239.68071589 -0.04336723 259.4510479 -0.03110075 C261.56166457 -0.02982664 263.67228126 -0.02856915 265.78289795 -0.02732849 C267.34034522 -0.02640284 267.34034522 -0.02640284 268.92925608 -0.02545848 C276.22460216 -0.02201364 283.5199069 -0.02781521 290.81524658 -0.0372467 C299.71326199 -0.04849796 308.61113635 -0.04536112 317.50913572 -0.02412373 C322.0437238 -0.01365528 326.57807725 -0.00941921 331.11266327 -0.02272034 C335.27276367 -0.0347379 339.43241444 -0.02792952 343.5924747 -0.00681013 C345.08824117 -0.00238335 346.58404653 -0.00452065 348.07978749 -0.01431328 C361.23538226 -0.09375993 373.59317301 2.06905235 385.32177734 8.32043457 C385.98604736 8.66372803 386.65031738 9.00702148 387.3347168 9.36071777 C394.81852691 13.33434945 401.17307785 18.30120762 406.94677734 24.50793457 C407.61322266 25.16922363 408.27966797 25.8305127 408.96630859 26.51184082 C420.43716405 38.37352611 429.0276225 55.57255766 429.08658504 72.33034134 C429.09227629 73.27874649 429.09796753 74.22715165 429.10383123 75.20429635 C429.10501111 76.23804005 429.10619099 77.27178376 429.10740662 78.33685303 C429.11249444 79.44141775 429.11758226 80.54598247 429.12282425 81.68401885 C429.13854524 85.39257545 429.14707284 89.10111257 429.15551758 92.80969238 C429.162626 94.7890653 429.1697408 96.76843824 429.1773579 98.74780926 C429.21062939 107.39876969 429.23219061 116.04974186 429.25055775 124.70074522 C429.25535553 126.95374974 429.26033848 129.20675378 429.26536298 131.4597578 C429.29633039 145.45793526 429.323008 159.45611691 429.33978176 173.454319 C429.34373107 176.6943589 429.3477341 179.93439873 429.35180664 183.17443848 C429.352815 183.97970678 429.35382336 184.78497508 429.35486228 185.61464545 C429.37187126 198.6610252 429.41298633 211.70721535 429.46382963 224.75350252 C429.51562506 238.15452074 429.54472625 251.55544146 429.55197865 264.95655894 C429.55663775 272.47820774 429.57135623 279.99954571 429.61172295 287.52109528 C429.64605678 293.92615746 429.65994875 300.33085266 429.64729881 306.73600158 C429.64147997 310.00222104 429.64856697 313.26750362 429.67546844 316.53363991 C429.70311586 320.08009509 429.69365379 323.6246105 429.67503357 327.17108154 C429.70022596 328.70831277 429.70022596 328.70831277 429.72592729 330.27659917 C429.63145201 337.48716921 427.67992869 342.05406413 422.94677734 347.50793457 C417.57947004 352.09250956 412.35541294 352.23423822 405.39990234 352.01965332 C400.21919303 351.25192377 396.52188918 349.32986375 392.94677734 345.50793457 C388.78605574 339.59137624 388.37454902 335.08195351 388.44125366 327.95222473 C388.43516354 326.90115404 388.42907342 325.85008335 388.42279875 324.76716202 C388.40720447 321.25124614 388.4199856 317.73601201 388.43261719 314.22009277 C388.42715611 311.69668652 388.41991455 309.17328359 388.411026 306.64988708 C388.39568565 301.21788075 388.39238065 295.78607823 388.39979172 290.35405922 C388.41032755 282.48731975 388.39689217 274.6207597 388.37732716 266.75404408 C388.34600277 253.97254409 388.33098364 241.19108208 388.32763672 228.4095459 C388.32733074 227.26283734 388.32733074 227.26283734 388.32701857 226.09296294 C388.32681521 225.32757122 388.32661184 224.56217949 388.32640231 223.77359408 C388.32348548 212.93511652 388.31668781 202.09665072 388.30517578 191.25817871 C388.30437049 190.49615775 388.30356519 189.7341368 388.30273549 188.9490243 C388.28895599 176.22027175 388.26714738 163.49154 388.24130595 150.76280659 C388.22590376 142.92146457 388.21864107 135.08019086 388.22210087 127.23883399 C388.22439188 121.22211775 388.21699994 115.20545424 388.20622063 109.1887455 C388.2035458 106.72818124 388.20427597 104.26761047 388.2087307 101.8070488 C388.21440744 98.43747264 388.20778539 95.06812556 388.19833374 91.69856262 C388.20299695 90.7344269 388.20766017 89.77029117 388.21246469 88.77693921 C388.13682594 74.88163001 385.65288383 62.75345005 375.96630859 52.32824707 C364.01333073 41.55438308 349.93264865 41.35558165 334.70220947 41.3742218 C333.25192701 41.37235179 331.80164506 41.37005033 330.3513639 41.36735648 C326.37924629 41.36125559 322.40714978 41.36137005 318.43502855 41.36255085 C314.14587106 41.36275529 309.85672027 41.35723197 305.56756592 41.35249329 C297.16915794 41.34419554 288.77075698 41.34143884 280.37234524 41.34088091 C273.5438809 41.34040533 266.71541887 41.33834849 259.88695526 41.33518028 C240.51619723 41.32637608 221.14544474 41.32176054 201.7746847 41.32251076 C200.20906489 41.32257069 200.20906489 41.32257069 198.61181641 41.32263184 C197.56679174 41.32267272 196.52176708 41.3227136 195.44507501 41.32275572 C178.51138152 41.32316211 161.57771027 41.31359355 144.64402321 41.29949347 C127.24603949 41.28512138 109.84806662 41.27822375 92.45007682 41.27908725 C82.68670191 41.27941893 72.92335033 41.27668441 63.15998077 41.26590919 C54.84695076 41.25679324 46.53395464 41.25463794 38.22092178 41.26141862 C33.98249814 41.26467829 29.74413947 41.26476049 25.50572205 41.25606537 C21.61948552 41.24817499 17.73336524 41.24965756 13.84713146 41.2583495 C12.447435 41.25987892 11.04772976 41.25808956 9.64804366 41.25248943 C-5.83582735 41.19468241 -19.46357726 42.55293004 -31.23291016 53.48840332 C-42.00677415 65.44138118 -42.20557558 79.52206327 -42.18693542 94.75250244 C-42.18880544 96.2027849 -42.1911069 97.65306685 -42.19380075 99.10334802 C-42.19990164 103.07546563 -42.19978717 107.04756214 -42.19860637 111.01968336 C-42.19840193 115.30884085 -42.20392526 119.59799164 -42.20866394 123.887146 C-42.21696168 132.28555398 -42.21971839 140.68395494 -42.22027632 149.08236668 C-42.2207519 155.91083102 -42.22280874 162.73929304 -42.22597694 169.56775665 C-42.23478115 188.93851468 -42.23939669 208.30926717 -42.23864647 227.68002722 C-42.23858654 229.24564702 -42.23858654 229.24564702 -42.23852539 230.84289551 C-42.23846407 232.4104325 -42.23846407 232.4104325 -42.23840151 234.00963691 C-42.23799511 250.9433304 -42.24756367 267.87700165 -42.26166376 284.8106887 C-42.27603584 302.20867242 -42.28293348 319.60664529 -42.28206998 337.0046351 C-42.2817383 346.76801 -42.28447282 356.53136159 -42.29524803 366.29473114 C-42.30436398 374.60776115 -42.30651929 382.92075728 -42.29973861 391.23379013 C-42.29647893 395.47221378 -42.29639673 399.71057244 -42.30509186 403.94898987 C-42.31298224 407.83522639 -42.31149966 411.72134668 -42.30280773 415.60758045 C-42.30127831 417.00727691 -42.30306766 418.40698216 -42.3086678 419.80666825 C-42.36647482 435.29053926 -41.00822719 448.91828917 -30.07275391 460.68762207 C-18.11977604 471.46148606 -4.03909396 471.66028749 11.19134521 471.64164734 C12.64162767 471.64351735 14.09190963 471.64581881 15.54219079 471.64851266 C19.5143084 471.65461355 23.48640491 471.65449909 27.45852613 471.65331829 C31.74768363 471.65311385 36.03683442 471.65863717 40.32598877 471.66337585 C48.72439675 471.6716736 57.12279771 471.6744303 65.52120945 471.67498823 C72.34967379 471.67546381 79.17813582 471.67752065 86.00659943 471.68068886 C105.37735745 471.68949306 124.74810995 471.6941086 144.11886999 471.69335838 C145.16261653 471.69331843 146.20636306 471.69327847 147.28173828 471.6932373 C148.32676294 471.69319642 149.37178761 471.69315554 150.44847968 471.69311342 C167.38217317 471.69270703 184.31584442 471.70227559 201.24953148 471.71637567 C218.64751519 471.73074776 236.04548807 471.7376454 253.44347787 471.7367819 C263.20685278 471.73645021 272.97020436 471.73918473 282.73357391 471.74995995 C291.04660393 471.7590759 299.35960005 471.7612312 307.6726329 471.75445052 C311.91105655 471.75119085 316.14941522 471.75110865 320.38783264 471.75980377 C324.27406917 471.76769415 328.16018945 471.76621158 332.04642323 471.75751964 C333.44611969 471.75599022 334.84582493 471.75777958 336.24551103 471.76337972 C351.72938204 471.82118673 365.35713194 470.4629391 377.12646484 459.52746582 C384.10416329 451.78611368 386.79401564 443.38572818 387.69677734 433.13293457 C388.79677093 424.51205462 391.38341514 419.55163978 397.94677734 413.94543457 C403.51217573 411.2864109 409.99037705 411.62525534 415.94677734 412.50793457 C421.63331267 414.78094233 425.22839937 418.05550628 428.15722656 423.48034668 C429.62787642 427.25701554 429.53624832 431.00179452 429.44677734 435.00793457 C429.43324219 435.88868652 429.41970703 436.76943848 429.40576172 437.67687988 C428.86160966 455.10872786 421.75671801 472.59007532 409.94677734 485.50793457 C409.14626953 486.39996582 408.34576172 487.29199707 407.52099609 488.21105957 C394.788156 501.69939379 377.09570517 511.31708986 358.37665594 512.78857887 C354.33299118 512.89554558 350.29889689 512.91341829 346.25431824 512.89561462 C344.69547354 512.89979506 343.13663189 512.90527646 341.5777958 512.91193444 C337.32401082 512.9263148 333.0704208 512.92216766 328.81662548 512.91476762 C324.2173063 512.91001976 319.61802832 512.92256011 315.01872253 512.93278503 C306.01958811 512.94994713 297.02052359 512.95081837 288.02137705 512.94557213 C280.70342073 512.94152413 273.38548502 512.94298146 266.06752968 512.94832039 C265.02439985 512.94906881 263.98127003 512.94981723 262.90653021 512.95058833 C260.78712858 512.95211988 258.66772696 512.95365823 256.54832534 512.9552033 C236.68997967 512.96891914 216.83167345 512.96349724 196.97332869 512.95201809 C178.82617953 512.94208813 160.67913238 512.95502393 142.53199895 512.97895228 C123.8761613 513.00336511 105.2203711 513.01294569 86.5645178 513.00629956 C76.09964965 513.002812 65.63485992 513.00500866 55.17000389 513.02255058 C46.26094339 513.03729993 37.35201651 513.0378724 28.44295856 513.02047967 C23.90231074 513.01198953 19.36190132 513.00977129 14.82126617 513.02513123 C10.65550268 513.03904795 6.49018026 513.0341264 2.32444183 513.01489199 C0.82656364 513.01115292 -0.67135049 513.01399276 -2.16919646 513.02450364 C-15.33074679 513.1102122 -27.69510828 510.95361879 -39.42822266 504.69543457 C-40.09684326 504.34779053 -40.76546387 504.00014648 -41.4543457 503.64196777 C-46.80454252 500.78839944 -51.56750466 497.60892858 -56.05322266 493.50793457 C-56.94525391 492.70742676 -57.83728516 491.90691895 -58.75634766 491.08215332 C-72.24468188 478.34931323 -81.86237794 460.6568624 -83.33386695 441.93781316 C-83.44083367 437.89414841 -83.45870638 433.86005412 -83.44090271 429.81547546 C-83.44508315 428.25663077 -83.45056454 426.69778911 -83.45722252 425.13895303 C-83.47160288 420.88516804 -83.46745574 416.63157803 -83.46005571 412.3777827 C-83.45530785 407.77846352 -83.46784819 403.17918555 -83.47807312 398.57987976 C-83.49523521 389.58074533 -83.49610646 380.58168081 -83.49086022 371.58253428 C-83.48681222 364.26457796 -83.48826955 356.94664224 -83.49360847 349.6286869 C-83.4943569 348.58555708 -83.49510532 347.54242725 -83.49587642 346.46768743 C-83.49740796 344.3482858 -83.49894631 342.22888418 -83.50049139 340.10948256 C-83.51420723 320.2511369 -83.50878533 300.39283067 -83.49730618 280.53448591 C-83.48737622 262.38733676 -83.50031201 244.2402896 -83.52424037 226.09315618 C-83.54865319 207.43731852 -83.55823378 188.78152833 -83.55158764 170.12567502 C-83.54810009 159.66080688 -83.55029674 149.19601714 -83.56783867 138.73116112 C-83.58258801 129.82210062 -83.58316049 120.91317374 -83.56576776 112.00411578 C-83.55727761 107.46346796 -83.55505938 102.92305855 -83.57041931 98.3824234 C-83.58433603 94.21665991 -83.57941449 90.05133749 -83.56018008 85.88559905 C-83.55644101 84.38772086 -83.55928085 82.88980674 -83.56979173 81.39196076 C-83.65552205 68.22706786 -81.49527369 55.87043248 -75.24072266 44.13293457 C-74.72687012 43.13652954 -74.72687012 43.13652954 -74.20263672 42.11999512 C-71.36942897 36.77541636 -68.013017 32.08055423 -64.05322266 27.50793457 C-63.45638672 26.71516113 -62.85955078 25.9223877 -62.24462891 25.10559082 C-46.85249345 6.86001136 -23.04040192 -0.15084566 0 0 Z " fill="#000000" transform="translate(83.05322265625,-0.5079345703125)"/>
<path d="M0 0 C1.10730469 0.36222656 2.21460938 0.72445312 3.35546875 1.09765625 C18.91509205 6.91525938 30.65630812 18.25940108 38 33 C45.99762916 50.81449924 48.11739532 70.11527772 48.20874023 89.45507812 C48.21829913 90.79154186 48.22819112 92.12800326 48.23838806 93.46446228 C48.26951021 97.82002922 48.28999618 102.17561383 48.30859375 106.53125 C48.31189107 107.27502207 48.31518839 108.01879414 48.31858563 108.78510475 C48.34933121 115.81025855 48.37600673 122.83541718 48.39300442 129.86061859 C48.4149295 138.81258772 48.45699956 147.76395897 48.52644199 156.71568918 C48.57375703 163.03102983 48.59794697 169.34620942 48.6052013 175.66172171 C48.61014176 179.42533027 48.62507042 183.1882612 48.6649456 186.95167542 C48.70196512 190.49130914 48.71017295 194.02988217 48.69693947 197.56967354 C48.69701859 199.47522157 48.72676228 201.38069747 48.75762939 203.28599548 C48.69214955 211.06877626 47.35099173 216.19764833 42 222 C36.85731465 226.33184678 31.77220588 226.61517967 25.2265625 226.6015625 C23.84179214 226.61441788 23.84179214 226.61441788 22.42904663 226.62753296 C20.4843065 226.63897152 18.53948084 226.64005551 16.59472656 226.63134766 C13.63977099 226.62503157 10.68883553 226.6719718 7.734375 226.72265625 C5.8359425 226.72720375 3.93749934 226.72860852 2.0390625 226.7265625 C1.16690094 226.74498199 0.29473938 226.76340149 -0.60385132 226.78237915 C-7.26288997 226.68334183 -12.2035031 224.71070317 -17 220 C-20.9403823 214.45991768 -21.58223641 210.35093598 -21.5300293 203.65014648 C-21.53876068 202.73836639 -21.54749207 201.8265863 -21.55648804 200.88717651 C-21.58081467 197.88161355 -21.57745236 194.87674262 -21.57421875 191.87109375 C-21.58668417 189.75902661 -21.60102396 187.64696979 -21.61714172 185.53492737 C-21.65516657 179.96865729 -21.6703427 174.40256451 -21.67993164 168.83618164 C-21.69725334 161.05762252 -21.74483974 153.27918577 -21.78999329 145.50074768 C-21.81396434 141.36786225 -21.82919058 137.2351036 -21.83683777 133.10215759 C-21.86518244 123.41619612 -22.01787049 113.74838205 -22.43286133 104.07055664 C-22.46933368 103.17945159 -22.50580603 102.28834654 -22.5433836 101.3702383 C-23.18769437 87.82158685 -25.07391459 74.29003726 -35.3125 64.5625 C-43.89821782 57.56986283 -53.15962545 56.54289325 -64.08203125 57.1796875 C-74.30829672 58.49315279 -84.08507346 62.45372576 -90.54296875 70.75 C-102.65780323 89.45816263 -101.13770144 112.47511747 -101.10753441 133.85671997 C-101.10394419 139.31989165 -101.12985582 144.78296909 -101.15039062 150.24609375 C-101.17474021 157.14999214 -101.19031793 164.05358389 -101.17504883 170.95751953 C-101.1633752 176.58597882 -101.18079288 182.21369748 -101.21749306 187.84204102 C-101.22607722 189.97255868 -101.22407624 192.10314782 -101.210989 194.23364258 C-101.19404444 197.20997319 -101.2143384 200.18396185 -101.24291992 203.16015625 C-101.22912796 204.02681412 -101.215336 204.89347198 -101.2011261 205.78639221 C-101.32558616 212.49978125 -103.64209611 216.9273339 -108 222 C-113.06387689 226.29043075 -118.09772739 226.61533909 -124.5546875 226.6015625 C-125.90616379 226.61441788 -125.90616379 226.61441788 -127.28494263 226.62753296 C-129.1826035 226.63896947 -131.080352 226.64005703 -132.97802734 226.63134766 C-135.86059247 226.62503157 -138.73903608 226.67197298 -141.62109375 226.72265625 C-158.18731928 226.8417963 -158.18731928 226.8417963 -164.38330078 221.97412109 C-168.99938342 216.33750916 -170.59441533 211.88764369 -170.52139282 204.62600708 C-170.52904392 203.80966573 -170.53669501 202.99332437 -170.54457796 202.1522454 C-170.56513125 199.43082087 -170.55727501 196.71024872 -170.54931641 193.98876953 C-170.55801539 192.03191348 -170.56838328 190.07506425 -170.58029175 188.1182251 C-170.60704422 182.81234246 -170.60823222 177.50674498 -170.60316515 172.20080805 C-170.60102376 167.76745628 -170.61079751 163.33416197 -170.62037599 158.90082252 C-170.64255698 148.43953446 -170.6434465 137.97839003 -170.63134766 127.51708984 C-170.61926803 116.73386843 -170.64389192 105.95116895 -170.68648779 95.16803658 C-170.72174321 85.90155564 -170.73371885 76.63524066 -170.72721231 67.36869514 C-170.72358985 61.83791845 -170.72882602 56.30751406 -170.75664139 50.77679825 C-170.78182749 45.57432539 -170.77788364 40.37266482 -170.75181961 35.17020416 C-170.74709513 33.26470793 -170.75253247 31.35915427 -170.76906586 29.45372391 C-170.90888351 12.08287895 -170.90888351 12.08287895 -165.60642242 5.53786087 C-160.02828901 0.19780027 -155.01711743 -0.61771773 -147.4453125 -0.6015625 C-146.54432831 -0.61013275 -145.64334412 -0.618703 -144.71505737 -0.62753296 C-142.8173965 -0.63896947 -140.919648 -0.64005703 -139.02197266 -0.63134766 C-136.13940753 -0.62503157 -133.26096392 -0.67197298 -130.37890625 -0.72265625 C-113.73292584 -0.83656826 -113.73292584 -0.83656826 -107.47021484 4.41650391 C-101.1283854 11.24697647 -101.25176727 17.92379006 -101 27 C-100.61070312 26.45472656 -100.22140625 25.90945312 -99.8203125 25.34765625 C-88.26702587 9.77467773 -73.68935015 1.27392116 -55 -3 C-54.25403564 -3.1743457 -53.50807129 -3.34869141 -52.73950195 -3.52832031 C-36.10558185 -6.39230157 -15.94793371 -5.22461846 0 0 Z " fill="#000000" transform="translate(374,197)"/>
<path d="M0 0 C0.94537628 -0.00857025 1.89075256 -0.0171405 2.86477661 -0.02597046 C4.85659597 -0.03741097 6.84849885 -0.03849157 8.84033203 -0.02978516 C11.86767987 -0.02346907 14.89110414 -0.07040816 17.91796875 -0.12109375 C19.86197428 -0.1256412 21.80599022 -0.12704604 23.75 -0.125 C24.64403534 -0.14341949 25.53807068 -0.16183899 26.459198 -0.18081665 C33.31778646 -0.08119272 37.85134488 2.08431166 43.0078125 6.6015625 C48.2402514 12.9011189 48.1589064 20.61899942 48.14152527 28.44406128 C48.14379083 29.2032329 48.14605638 29.96240452 48.14839059 30.74458134 C48.15468853 33.27228222 48.15390395 35.7999289 48.15307617 38.32763672 C48.15607026 40.14655628 48.15947337 41.96547521 48.16325378 43.78439331 C48.17207187 48.71418134 48.17443096 53.643952 48.17506957 58.57374716 C48.17578124 61.65620319 48.17791776 64.73865483 48.18056679 67.82110977 C48.18981248 78.58175181 48.19390259 89.34238147 48.19311523 100.10302734 C48.19251443 110.12262554 48.20306879 120.14216991 48.2188589 130.16175449 C48.23194641 138.77428181 48.23729863 147.38679155 48.23665982 155.99932873 C48.23640522 161.13874082 48.23923563 166.27810502 48.24983788 171.41750717 C48.2595394 176.25202767 48.25958394 181.0864547 48.25232124 185.92097855 C48.25127801 187.69101854 48.25362275 189.46106443 48.2596817 191.23109436 C48.32922439 212.9613794 48.32922439 212.9613794 42.71484375 220.99609375 C36.92294723 226.44339231 31.66660528 227.21865398 24.015625 227.203125 C23.07024872 227.21169525 22.12487244 227.2202655 21.15084839 227.22909546 C19.15902903 227.24053597 17.16712615 227.24161657 15.17529297 227.23291016 C12.14794513 227.22659407 9.12452086 227.27353316 6.09765625 227.32421875 C4.15365072 227.3287662 2.20963478 227.33017104 0.265625 227.328125 C-0.62841034 227.34654449 -1.52244568 227.36496399 -2.443573 227.38394165 C-9.16871323 227.28625611 -14.14986976 225.37556507 -18.9921875 220.6015625 C-22.49726378 215.40880719 -23.57692321 211.52662779 -23.51358032 205.22756958 C-23.52123142 204.41122823 -23.52888251 203.59488687 -23.53676546 202.7538079 C-23.55731875 200.03238337 -23.54946251 197.31181122 -23.54150391 194.59033203 C-23.55020289 192.63347598 -23.56057078 190.67662675 -23.57247925 188.7197876 C-23.59923172 183.41390496 -23.60041972 178.10830748 -23.59535265 172.80237055 C-23.59321126 168.36901878 -23.60298501 163.93572447 -23.61256349 159.50238502 C-23.63474448 149.04109696 -23.635634 138.57995253 -23.62353516 128.11865234 C-23.61145553 117.33543093 -23.63607942 106.55273145 -23.67867529 95.76959908 C-23.71393071 86.50311814 -23.72590635 77.23680316 -23.71939981 67.97025764 C-23.71577735 62.43948095 -23.72101352 56.90907656 -23.74882889 51.37836075 C-23.77401499 46.17588789 -23.77007114 40.97422732 -23.74400711 35.77176666 C-23.73928263 33.86627043 -23.74471997 31.96071677 -23.76125336 30.05528641 C-23.90107705 12.68369119 -23.90107705 12.68369119 -18.59593964 6.13942337 C-12.89172879 0.66957397 -7.74250776 -0.01571475 0 0 Z " fill="#000000" transform="translate(112.9921875,196.3984375)"/>
<path d="M0 0 C9.49405291 6.56717725 16.31896143 15.3917502 18.83984375 26.71484375 C19.63028039 39.78944331 19.25085515 51.21647678 10.59765625 61.8046875 C2.83556058 70.23949812 -5.39428361 76.24535095 -17.1015625 76.953125 C-29.99436605 77.26335721 -40.32496197 75.76563603 -50.16015625 66.71484375 C-58.50329227 58.60133533 -63.17028096 50.25529439 -63.45263672 38.52099609 C-63.56704476 24.98457143 -60.66848043 15.43566767 -51.08984375 5.5859375 C-37.40175723 -7.36289696 -16.29702429 -9.695698 0 0 Z " fill="#000000" transform="translate(148.16015625,89.28515625)"/>
</svg>
