<svg height="800px" width="800px" version="1.1" id="Layer_1" xmlns="http://www.w3.org/2000/svg" xmlns:xlink="http://www.w3.org/1999/xlink" viewBox="0 0 512 512" xml:space="preserve" transform="rotate(0) scale(1, 1)">
<path style="fill:#888888;" d="M57.284,301.704H9.226l22.171-42.651h0.012C46.78,267.087,57.284,283.154,57.284,301.704z"/>
<path style="fill:#d3d3d3;" d="M94.947,152.348c-7.734,5.048-14.365,12.123-19.017,21.08l-6.655,12.782&#xA;&#9;c-2.866-0.887-5.6-1.835-8.178-2.842c-45.373-17.65-48.106-53.142-36.476-76.824C31.372,92.803,42.967,83.03,53.879,83.03&#xA;&#9;C84.683,83.03,94.947,152.348,94.947,152.348z"/>
<path style="fill:#b3b3b3;" d="M70.965,175.13c-3.561,2.326-6.883,5.072-9.868,8.238c-45.373-17.65-48.106-53.142-36.476-76.824&#xA;&#9;c1.763-0.48,3.525-0.731,5.276-0.731C60.702,105.813,70.965,175.13,70.965,175.13z"/>
<path style="fill:#d3d3d3;" d="M459.702,246.99c0,28.766-23.142,54.713-54.773,54.713H57.284c0-18.549-10.504-34.617-25.876-42.651&#xA;&#9;l37.866-72.843l6.655-12.782c4.652-8.957,11.283-16.031,19.017-21.08c6.067-3.957,12.818-6.679,19.821-8.058&#xA;&#9;c0.012-0.012,0.012-0.012,0.012-0.012c7.23-1.439,14.736-1.463,22.063,0c3.801-18.274,15.324-61.248,39.581-61.248&#xA;&#9;c10.696,0,22.039,9.377,28.849,22.686v0.012c3.525,6.895,5.827,14.832,6.199,23.082c22.59-9.233,46.332-13.765,69.929-13.909&#xA;&#9;c70.601-0.456,139.871,38.43,173.013,108.755C458.035,231.343,459.702,239.268,459.702,246.99z"/>
<g>
	<path style="fill:#b3b3b3;" d="M93.16,301.704H57.284c0-18.549-10.504-34.617-25.876-42.651l37.866-72.843l6.655-12.782&#xA;&#9;&#9;c4.652-8.957,11.283-16.031,19.017-21.08c6.067-3.957,12.818-6.679,19.821-8.058C113.904,145.765,38.315,273.861,93.16,301.704z"/>
	<path style="fill:#b3b3b3;" d="M217.791,206.414l-21.511-24.725h-23.01l20.036-12.29l18.561-25.552l-6.595-38.118&#xA;&#9;&#9;c3.525,6.895,5.827,14.832,6.199,23.082c22.59-9.233,46.332-13.765,69.929-13.909C216.676,133.919,217.791,206.414,217.791,206.414&#xA;&#9;&#9;z"/>
</g>
<path d="M224.225,301.469c0-4.967-4.026-8.993-8.993-8.993H184.74v-5.756c0-11.088,9.027-20.108,20.12-20.108h36.08&#xA;&#9;c4.967,0,8.993-4.026,8.993-8.993s-4.026-8.993-8.993-8.993h-36.08c-21.012,0-38.106,17.089-38.106,38.094v5.756H65.33&#xA;&#9;c-2.335-14.744-10.347-27.944-22.363-36.844l40.709-78.294c3.797-7.311,9.164-13.264,15.955-17.696&#xA;&#9;c7.853-5.128,17.173-7.776,26.508-7.679c-0.079,4.443,3.137,8.363,7.65,9.041c4.911,0.735,9.488-2.648,10.227-7.558&#xA;&#9;c0.005-0.029,0.453-2.99,1.398-7.572c5.19-24.95,16.364-54.086,30.776-54.086c10.758,0,25.186,17.51,26.064,37.182&#xA;&#9;c0.488,11.113-3.101,26.895-22.912,39.097c-0.092,0.052-0.183,0.106-0.273,0.159c-5.926,3.619-12.967,6.698-20.927,9.155&#xA;&#9;c-4.746,1.464-7.405,6.499-5.941,11.245c1.192,3.863,4.748,6.344,8.59,6.344c0.878,0,1.772-0.129,2.655-0.402&#xA;&#9;c6.931-2.138,13.328-4.714,19.1-7.685l39.106,35.046c1.717,1.538,3.862,2.296,5.999,2.296c2.468,0,4.923-1.01,6.7-2.992&#xA;&#9;c3.314-3.698,3.004-9.384-0.695-12.699l-35.547-31.857c15.166-12.682,22.946-29.557,22.114-48.503&#xA;&#9;c-1.27-28.457-22.257-54.373-44.032-54.373c-26.752,0-40.238,34.726-46.544,60.307c-9.642-0.585-19.364,0.971-28.331,4.524&#xA;&#9;c-4.899-22.09-18.191-64.831-47.669-64.831c-19.611,0-39.479,21.901-43.386,47.825c-2.261,15.009,0.923,29.406,9.209,41.637&#xA;&#9;c8.005,11.816,20.38,21.107,36.838,27.727L1.013,297.32c-1.448,2.788-1.338,6.13,0.293,8.816c1.631,2.686,4.546,4.326,7.687,4.326&#xA;&#9;h206.239C220.199,310.462,224.225,306.435,224.225,301.469z M28.046,124.307c2.76-18.313,16.028-32.519,25.601-32.519&#xA;&#9;c15.958,0,27.22,35.073,31.268,56.367c-7.076,5.644-12.971,12.756-17.193,20.885l-3.067,5.898&#xA;&#9;C37.979,164.658,24.703,146.488,28.046,124.307z M34.502,271.894c6.242,5.383,10.607,12.575,12.493,20.582H23.804L34.502,271.894z"/>
<path d="M282.38,379.264h-47.935c-16.252,0-29.473,13.216-29.473,29.461c0,7.859,3.061,15.257,8.64,20.854&#xA;&#9;c5.576,5.558,12.975,8.619,20.834,8.619h28.37c4.967,0,8.993-4.026,8.993-8.993c0-4.967-4.026-8.993-8.993-8.993h-28.37&#xA;&#9;c-3.065,0-5.955-1.198-8.115-3.35c-2.174-2.181-3.372-5.071-3.372-8.137c0-6.327,5.152-11.475,11.487-11.475h47.934&#xA;&#9;c4.967,0,8.993-4.026,8.993-8.993S287.346,379.264,282.38,379.264z"/>
<path d="M459.613,292.476h-10.578c11.967-11.588,19.426-27.796,19.426-45.72c0-9.371-2.068-18.511-6.146-27.167&#xA;&#9;c-20.209-42.878-53.512-75.944-96.31-95.622c-40.943-18.824-87.436-23.295-130.911-12.588c-4.823,1.187-7.769,6.06-6.582,10.883&#xA;&#9;c1.187,4.823,6.062,7.771,10.883,6.582c39.54-9.738,81.836-5.667,119.097,11.465c38.899,17.884,69.174,47.949,87.553,86.945&#xA;&#9;c2.94,6.24,4.431,12.801,4.431,19.502c0,25.21-20.536,45.72-45.78,45.72h-70.829v-10.768c0-16.536,13.458-29.989,30.001-29.989&#xA;&#9;h48.346c4.967,0,8.993-4.026,8.993-8.993c0-4.967-4.026-8.993-8.993-8.993h-48.346c-26.46,0-47.986,21.521-47.986,47.975v10.768&#xA;&#9;h-70.672c-4.967,0-8.993,4.026-8.993,8.993s4.026,8.993,8.993,8.993h214.404c18.969,0,34.401,15.432,34.401,34.401&#xA;&#9;c0,9.188-3.578,17.828-10.076,24.325c-6.498,6.497-15.137,10.076-24.325,10.076H308.759c-4.967,0-8.993,4.026-8.993,8.993&#xA;&#9;c0,4.967,4.026,8.993,8.993,8.993h150.854c13.993,0,27.148-5.449,37.043-15.343c9.896-9.896,15.344-23.051,15.344-37.044&#xA;&#9;C512,315.976,488.5,292.476,459.613,292.476z"/>
<path d="M117.137,216.371c-4.967,0-8.993,4.026-8.993,8.993v10.684c0,4.967,4.026,8.993,8.993,8.993&#xA;&#9;c4.967,0,8.993-4.026,8.993-8.993v-10.684C126.13,220.397,122.103,216.371,117.137,216.371z"/>
<path d="M72.1,225.364v10.684c0,4.967,4.026,8.993,8.993,8.993c4.967,0,8.993-4.026,8.993-8.993v-10.684&#xA;&#9;c0-4.967-4.026-8.993-8.993-8.993C76.126,216.371,72.1,220.397,72.1,225.364z"/>
</svg>